<svg xmlns="http://www.w3.org/2000/svg" xmlns:xlink="http://www.w3.org/1999/xlink" id="Capa_1" x="0px" y="0px" width="242.7px" height="120.6px" viewBox="0 0 242.7 120.6" style="enable-background:new 0 0 242.7 120.6;" xml:space="preserve">
<style type="text/css">
	.st0{fill:#FEDA0D;}
	.st1{fill:#9DCCD6;}
	.st2{fill:#FFFFFF;stroke:#FFFFFF;stroke-width:0.75;}
</style>
<path class="st0" d="M203.4,1.6c-1.4,0-2.6,0.9-3.1,2.2L157,9.1c-0.6-0.9-1.6-1.5-2.7-1.5c-1.8,0-3.3,1.5-3.3,3.3  c0,0.6,0.2,1.1,0.4,1.6l-45.8,69c-0.1,0-0.2,0-0.3,0c-0.8,0-1.6,0.3-2.2,0.8L59.3,65.8c-0.2-1.6-1.6-2.9-3.3-2.9  c-1.8,0-3.3,1.5-3.3,3.3c0,0.4,0.1,0.7,0.2,1L7.8,112.4c-0.3-0.1-0.7-0.2-1-0.2c-1.8,0-3.3,1.5-3.3,3.3s1.5,3.3,3.3,3.3  s3.3-1.5,3.3-3.3c0-0.3-0.1-0.7-0.2-1l45.2-45.2c0.3,0.1,0.6,0.2,1,0.2c0.8,0,1.6-0.3,2.2-0.9L102,85.1c0.2,1.7,1.6,3,3.3,3  c1.8,0,3.3-1.5,3.3-3.3c0-0.6-0.2-1.1-0.4-1.6l45.8-69c0.1,0,0.2,0,0.3,0c1.4,0,2.6-0.9,3.1-2.1l43.3-5.3c0.6,0.9,1.6,1.4,2.7,1.4  c1.8,0,3.3-1.5,3.3-3.3C206.7,3.1,205.3,1.6,203.4,1.6z"></path>
<path class="st1" d="M129.2,75.1c0,0.7-0.4,1.3-1.2,2c-0.8,0.6-1.8,1-2.9,1c-0.5,0-0.7-0.1-0.7-0.4c0-0.1,0.1-0.2,0.2-0.2  c1.1-0.6,1.8-1.2,2.1-1.6c0-0.1,0.1-0.2,0.1-0.2s0-0.1-0.1-0.1c-1.6,0.2-3,1.1-4.5,2.6c-1.4,1.5-2.1,2.6-2.1,3.5  c0,0.4,0.1,0.6,0.4,0.6c1.4,0,2.8-0.4,4.3-1.2s3.7-2.2,6.7-4.3c0.2-0.1,0.5-0.4,0.9-0.7c0.4-0.3,0.7-0.5,0.7-0.5  c0.2,0.1,0.2,0.3,0.2,0.5s-0.1,0.3-0.2,0.5c-0.9,0.9-2.1,1.9-3.6,3.1c-1.5,1.1-3.1,2.2-5,3.2s-3.4,1.5-4.6,1.5  c-1.4,0-2.1-0.8-2.1-2.3c0-1,0.3-2.1,1-3.1s1.5-1.8,2.6-2.5c1-0.7,2.1-1.2,3.2-1.6s2-0.6,2.7-0.6s1.1,0.1,1.4,0.3  C129,74.8,129.1,75,129.2,75.1L129.2,75.1z M135.1,79.2c0.5,0,1.3-0.3,2.4-0.9c1.1-0.6,2-1.2,2.9-1.9l1.2-1c0.2,0.1,0.2,0.3,0.2,0.5  s-0.1,0.3-0.2,0.5c-3,2.8-5.3,4.2-6.9,4.2c-0.1,0-0.3,0-0.5-0.1c-2.1,2.4-3.8,3.6-5.3,3.6c-1-0.1-1.6-0.5-1.9-1  c-0.1-0.3-0.2-0.6-0.2-1c0-1.2,0.7-2.7,2.1-4.3c1.4-1.7,3.1-2.9,5.3-3.7c0.2,0,0.3,0,0.4,0.1c0.1,0.1,0.2,0.1,0.2,0.1  c0.1,0,0.2,0,0.3-0.1s0.3-0.1,0.5-0.1s0.4,0.1,0.6,0.3c0.3,0.2,0.4,0.5,0.4,0.9C136.7,76.3,136.2,77.6,135.1,79.2z M129.1,82.4  c0.6,0,1.3-0.4,2.2-1.2c0.9-0.8,1.3-1.3,1.3-1.6c-0.2-0.2-0.5-0.5-0.7-1s-0.4-0.7-0.4-0.7c-0.6,0.5-1.1,1.1-1.5,1.8  c-0.7,1.2-1,2-1,2.4C129,82.4,129,82.4,129.1,82.4z M135.1,75.7c-0.2,0-0.6,0.3-1.1,0.9s-0.9,1-0.9,1.2c0,0.1,0.1,0.2,0.2,0.3  c0.1,0.2,0.2,0.2,0.2,0.2c0.3,0,0.7-0.4,1.1-1.1c0.4-0.8,0.6-1.2,0.6-1.3S135.1,75.7,135.1,75.7z M142,74.5c0.1,0,0.4,0.1,0.7,0.2  s0.5,0.3,0.5,0.5c0,0.1,0,0.3-0.1,0.4l-2.1,2.9c-0.2,0.3-0.4,0.5-0.4,0.5v0.1l0.1-0.1c2.1-1.5,3.9-2.8,5.3-3.9  c0.3-0.2,0.5-0.3,0.6-0.3s0.3,0,0.3,0.1l0.8,0.2c0.2,0.1,0.3,0.2,0.3,0.4s0,0.3-0.1,0.4c-0.3,0.4-0.7,0.8-1.2,1.3  c-0.4,0.5-0.8,0.9-1,1.1s-0.5,0.5-0.7,0.8c-0.3,0.3-0.5,0.5-0.6,0.7s-0.3,0.4-0.4,0.6c-0.1,0.2-0.2,0.4-0.3,0.5  c-0.1,0.4-0.2,0.8-0.2,1.1c0,0.2,0.1,0.2,0.3,0.2s0.6-0.1,1.2-0.4s1.2-0.7,2-1.2s1.8-1.3,3.1-2.3s2.4-1.8,3.4-2.5  c0.2,0.1,0.2,0.3,0.2,0.5s-0.1,0.3-0.2,0.5c-0.6,0.6-1.3,1.3-2.2,2.1c-0.9,0.9-2.3,2-4.1,3.4s-3.1,2.1-3.9,2.1  c-1.4,0-2.1-0.8-2.1-2.3c0-0.6,0.2-1.2,0.7-1.8l1.2-1.6c0.1-0.2,0.2-0.3,0.2-0.3s-0.1,0-0.2,0.1c-3.2,2.7-5.2,4.2-6.1,4.7  c-0.1,0.1-0.3,0.1-0.5,0.1c-0.6,0-0.9-0.3-0.9-0.8c0-0.2,0-0.3,0.1-0.5c1.4-1.2,2.3-2.3,2.9-3.1c0.4-0.4,0.9-1.1,1.4-1.8  c0.5-0.8,0.9-1.4,1.2-2C141.5,74.8,141.8,74.5,142,74.5z M181.1,68.4c0.5,0.2,0.9,0.4,0.9,0.5V69c0,0.4-0.4,0.9-1.2,1.6  c-3.1,3.5-5.4,6.2-6.7,8.2c-0.4,0.5-0.9,1.4-1.6,2.4c-0.7,1.1-1.3,1.9-1.7,2.5s-1,1.4-1.7,2.4s-1.3,1.8-1.9,2.4  c-0.5,0.6-1.2,1.3-2,2.1c-0.8,0.8-1.5,1.4-2.2,1.9c-1.6,1.2-3.3,2-5.2,2.6c-0.5,0-0.9-0.1-1.4-0.3c-0.4-0.2-0.7-0.6-0.7-1  c0-1,0.8-2.2,2.3-3.7s3.6-2.6,6.1-3.3c0.4-0.1,0.6-0.2,0.8-0.4l7.9-9.4l0.4-0.5c0-0.1,0.1-0.1,0.1-0.2s0,0,0,0s-0.4,0.4-1.2,1.2  c-0.8,0.8-1.5,1.5-2,2.1c-0.6,0.6-1.3,1.4-2.3,2.2c-0.9,0.9-2.1,1.7-3.4,2.6c-1.3,0.9-2.5,1.3-3.4,1.3c-1.2,0-2-0.8-2.3-2.4  c-0.1-0.4-0.1-0.7-0.1-1.1c0-1.6,0.7-3.4,2.1-5.3c1.4-1.9,3.2-3.6,5.2-5.1c2.1-1.5,4.3-2.7,6.7-3.7s4.5-1.5,6.4-1.5l0,0  c0.6,0,1.1,0.2,1.5,0.6s0.6,0.7,0.6,1C181.1,68.3,181.1,68.3,181.1,68.4z M157.2,93.6c0,0.1,0,0.2,0.1,0.2h0.1  c0.5,0,1.6-0.9,3.5-2.6c1.9-1.8,3-3,3.3-3.9c0,0,0-0.1-0.1-0.1c-1.2,0.4-2.7,1.5-4.4,3.2C158,92.1,157.2,93.2,157.2,93.6z M180,68.8  c0.1-0.1,0.2-0.2,0.2-0.3s-0.1-0.1-0.2-0.1c-1.1,0-2.5,0.4-4.3,1.1s-3.5,1.8-5.3,3s-3.6,2.8-5.3,4.6c-1.7,1.8-3.1,3.7-4.1,5.6  c-0.1,0.1-0.1,0.1-0.1,0.2s0,0.1,0.1,0.1c1,0,3.5-1.5,7.3-4.5C172.2,75.6,176.1,72.4,180,68.8z M180.2,82.5l0.2-1.8  c0-0.1,0-0.1,0-0.1s-0.1,0-0.2,0.1c-0.2,0.3-0.5,0.6-0.9,0.9c-0.4,0.4-1,0.9-1.9,1.5s-1.6,0.9-2.2,0.9c-0.1,0-0.2-0.1-0.3-0.1  s-0.3-0.2-0.5-0.5s-0.3-0.6-0.3-1.1s0.4-1.2,1.1-2.2s1.6-1.9,2.6-2.9s2.1-1.8,3.4-2.5c1.2-0.7,2.3-1,3.2-1c0.3,0,0.6,0.3,0.8,0.7  c0.2-0.2,0.3-0.3,0.5-0.3s0.3,0.1,0.5,0.3c0.1,0,0.2,0.1,0.3,0.2s0.2,0.2,0.2,0.4c0,0.2-0.1,0.4-0.4,0.6c-0.4,0.5-0.8,1-1.3,1.6  s-0.9,1-1.1,1.3c-0.2,0.3-0.4,0.6-0.7,0.9c-0.4,0.6-0.6,1-0.7,1.4c1.9-0.9,4.8-2.8,8.8-5.8c0.2,0.1,0.2,0.3,0.2,0.5  s-0.1,0.3-0.2,0.5c-0.1,0.1-0.3,0.3-0.5,0.5s-0.6,0.5-1.3,1.1c-0.6,0.5-1.2,1-1.8,1.5s-1.2,1-2,1.6c-0.7,0.6-1.4,1.1-2,1.5  c-1.4,1-2.3,1.5-2.6,1.5s-0.6-0.1-0.7-0.3S180.2,83.1,180.2,82.5z M177.4,81.3c0.2,0,0.9-0.4,2-1.3s2.2-1.8,3.2-2.7l1.5-1.3  c0.1-0.1,0.1-0.1,0.1-0.2s0,0-0.1,0c-0.7,0-1.6,0.4-2.7,1.2c-1.1,0.8-2.1,1.6-2.9,2.5C177.8,80.4,177.4,81,177.4,81.3L177.4,81.3z   M198.1,64.9c1,0,1.4,0.3,1.4,0.8c0,0.8-0.7,1.9-2.2,3.4c-1.4,1.5-2.9,2.8-4.3,4l-2.1,1.7c-0.1,0.1-0.2,0.2-0.2,0.3s0,0.1,0.1,0.1  c1.4-0.9,2.7-1.4,3.9-1.5c0.2,0,0.4,0.1,0.6,0.2c0.6,0.5,0.9,1.1,0.9,1.8c0,0.7-0.7,1.8-2.1,3.4c0.6-0.1,1.4-0.5,2.4-1.1  s1.9-1.2,2.6-1.7l1.1-0.8c0.2,0.1,0.2,0.3,0.2,0.5s-0.1,0.3-0.2,0.5c-3,2.8-5.3,4.2-6.9,4.2c-0.1,0-0.3,0-0.5-0.1l0.1-0.1  c-1.1,1.1-2.2,1.9-3.2,2.7c-1.1,0.7-2,1.1-2.7,1.1c-1.7,0-2.6-0.6-2.6-1.8c0-0.6,0.2-1.3,0.6-2.1s0.8-1.6,1.4-2.3  c0.5-0.7,1.1-1.4,1.6-2s1-1.2,1.4-1.5c0.4-0.4,0.6-0.6,0.6-0.5c1.3-1.5,2.4-2.9,3.4-4.2c1-1.3,1.6-2.2,1.9-2.7s0.6-1,0.9-1.4  s0.6-0.6,0.8-0.7C197.2,64.9,197.6,64.9,198.1,64.9z M187.1,82.7c0.8,0,1.7-0.5,2.9-1.6s2.2-2.2,3.1-3.3c0.9-1.2,1.3-1.9,1.3-2.3  c0-0.1,0-0.1-0.1-0.1c-1,0-2,0.5-3.2,1.5s-2.2,2.1-3,3.2s-1.2,1.9-1.2,2.3C186.9,82.6,186.9,82.7,187.1,82.7z M195.4,78.5  c1-0.7,2.1-1.4,3.2-2.3c-0.6-0.4-1-0.8-1.1-1.2c-0.1-0.1-0.1-0.2-0.1-0.3c0-0.4,0.1-0.6,0.4-0.7s0.6-0.2,1.2-0.2  c0.2,0,0.8,0.2,1.8,0.7s1.6,0.7,1.9,0.7s0.6-0.1,1.1-0.2c0.5-0.2,0.9-0.2,1.1-0.2s0.5,0.1,0.6,0.2c0.5,0.6,0.7,1,0.7,1.1  s-0.1,0.2-0.2,0.3c-0.1,0.1-0.5,0.3-1.1,0.8c-0.6,0.4-1.3,0.9-1.9,1.3c-0.6,0.5-1.2,1-1.7,1.5c-0.5,0.6-0.8,1-0.8,1.4  c0,0.1,0,0.1,0.1,0.1c1,0,4.3-2,10-6c0.1,0,0.2,0.1,0.2,0.3s-0.7,1-2.2,2.4c-1.4,1.3-3.1,2.7-4.9,4c-1.8,1.3-3.1,1.9-4,1.9  c-1.3,0-1.9-0.6-1.9-1.9c0-0.7,0.2-1.4,0.7-2c0.5-0.7,1.5-1.5,3-2.6c-0.3,0-0.7-0.1-1.3-0.2c-0.5-0.2-0.9-0.3-1-0.6  c-0.5,0.4-1.3,1.1-2.5,2.1c-0.3,0.2-0.6,0.3-1.1,0.3c-0.4,0-0.7-0.1-0.7-0.2S195.1,78.7,195.4,78.5z M208.2,80.9  c-0.1,0.3-0.2,0.5-0.2,0.7s0.1,0.3,0.3,0.3c0.1,0,0.3-0.1,0.7-0.2c3.4-1.8,6.8-3.9,10.1-6.4c0.2,0.1,0.2,0.3,0.2,0.5  s-0.1,0.4-0.3,0.5c-0.2,0.2-0.4,0.4-0.8,0.7s-1,0.9-1.9,1.7s-1.8,1.5-2.7,2.2c-2.2,1.7-3.8,2.8-4.8,3.1c-0.3,0.1-0.7,0.1-1.1,0.1  c-1.4,0-2.1-0.8-2.1-2.3c0-0.6,0.3-1.4,1-2.5c0.6-1.1,1.3-2.1,2-2.9s1.1-1.3,1.3-1.4c0.3-0.2,0.7-0.3,1.1-0.3s0.8,0.1,1.1,0.2  c0.1,0.1,0.2,0.1,0.2,0.2s-0.1,0.2-0.3,0.4c-0.2,0.2-0.4,0.5-0.8,0.9c-0.4,0.4-0.9,1-1.6,2C208.9,79.4,208.4,80.2,208.2,80.9z   M214.8,70c0.2,0,0.3,0,0.4,0.1c0.3,0.3,0.4,0.6,0.4,0.8s-0.1,0.4-0.2,0.5c-0.1,0.1-0.2,0.3-0.4,0.5s-0.5,0.4-0.9,0.7  s-0.9,0.5-1.4,0.5c-0.3-0.1-0.5-0.3-0.5-0.6c0-0.5,0.3-1.1,1-1.6C213.8,70.3,214.4,70,214.8,70z M215.5,84.1c-1.4,0-2.1-0.9-2.1-2.6  c0-1.1,0.5-2.2,1.4-3.5c0.9-1.2,2.1-2.2,3.3-3s2.4-1.2,3.4-1.2c0.4,0,0.8,0.2,1.2,0.5s0.6,0.7,0.6,1c0,0.6-0.4,1.3-1.3,2  c-0.9,0.8-1.8,1.4-2.7,1.8c-0.9,0.5-1.6,0.7-1.9,0.7c-0.3,0-0.5-0.1-0.7-0.4c-0.1-0.1-0.2-0.1-0.3-0.1s-0.3,0.2-0.6,0.7  s-0.4,0.9-0.4,1.2s0.1,0.5,0.3,0.6c1.4,0,2.9-0.4,4.5-1.2c1.6-0.8,3.9-2.2,6.8-4.3c0.2-0.1,0.5-0.4,0.9-0.7c0.4-0.3,0.7-0.5,0.7-0.5  c0.2,0.1,0.2,0.3,0.2,0.5s-0.1,0.3-0.2,0.5c-0.9,0.9-2.1,1.9-3.6,3.1c-1.5,1.1-3.1,2.2-5,3.2C218.2,83.6,216.6,84.1,215.5,84.1z   M221.3,75.3c-0.5,0-1.3,0.5-2.4,1.5c-1.1,1-1.7,1.6-1.7,1.8c0,0,0,0.1,0.1,0.1c0.4,0,1.2-0.4,2.4-1.3s1.8-1.5,1.8-1.8  C221.5,75.4,221.4,75.3,221.3,75.3z M225.9,81.8c0.6,0,1.8-0.5,3.6-1.6s3.4-2.2,4.9-3.2l2.2-1.6c0.2,0.1,0.2,0.3,0.2,0.5  s-0.1,0.4-0.3,0.5c-0.2,0.2-0.4,0.4-0.8,0.7c-0.3,0.3-1,0.9-1.9,1.7s-1.8,1.5-2.7,2.2c-2.2,1.7-3.8,2.8-4.8,3.1  c-0.3,0.1-0.7,0.1-1,0.1s-0.6,0-0.8-0.1s-0.4-0.2-0.7-0.4c-0.5-0.4-0.7-1.3-0.7-2.7c0-0.4,0.2-1,0.5-1.8s0.9-1.7,1.6-2.9  s1.6-2.2,2.7-3.4c1-1.1,2.3-2.2,3.9-3.4c1.6-1.1,3.2-2,5-2.7c0.3-0.1,0.5-0.1,0.7-0.1s0.4,0.1,0.6,0.3s0.3,0.4,0.4,0.6l0.1,0.3  c0,0.4-0.7,1.3-2,2.8s-2.9,2.9-4.6,4.2c-1.8,1.3-3.4,2.5-4.9,3.5c-1.2,0.8-1.8,1.6-1.8,2.5C225.4,81.5,225.6,81.8,225.9,81.8z   M228.3,76.1c0.5,0,1.8-1.1,4.2-3.4c2.3-2.3,3.5-3.5,3.5-3.8v-0.1l-0.5,0.2c-1,0.6-2.2,1.7-3.8,3.2s-2.7,2.7-3.3,3.5  C228.3,76,228.3,76,228.3,76.1L228.3,76.1z"></path>
<path class="st2" d="M15.7,25.6v1h7.1v6.5h-7.1V61H5.6V33.1H1.9v-6.5h3.7v-0.9c0-1.1,0-2.7,0.1-3.9c0.5-6.1,4.5-9.8,13.9-9.8  c1.4,0,2.7,0.2,3.9,0.5v6.9c-4.2-0.8-7.2,0.4-7.6,3.4C15.7,23.6,15.7,24.7,15.7,25.6z M35.2,17.7c0,3.2-2.2,5.2-5.5,5.2  s-5.4-2-5.4-5.2c0-3.1,2.1-5.1,5.4-5.1C33,12.5,35.2,14.5,35.2,17.7z M24.7,60.6V25.9h10.2v34.7H24.7z M72.9,41.4V61H62.7V43  c0-1.3,0-3.1-0.1-4.8c-0.3-3.5-2.2-5.7-6.2-5.7s-7,3.6-7,12.5v16H39.1V26.3h10.2v5.5l2.9-4.2c2.3-1.6,4.8-2.2,8.1-2.2  c7.3,0,11.5,3.5,12.3,9.6C72.8,36.8,72.9,38.6,72.9,41.4z M96.2,56l-1.6,3.7C92.1,61.3,89.2,62,86,62c-5.9,0-11.1-3.6-11.1-10.2  c0-7.6,6.7-12,18.9-12H96v-0.6c0-0.9,0-1.8-0.1-3c-0.2-2.1-1.8-3.8-4.8-3.8c-3.2,0-4.9,2-5.2,5.4h-9.8c0.2-7.9,6.9-12.4,15.4-12.4  c10.3,0,14,4.5,14.5,10.7c0.1,1.6,0.2,3.6,0.2,5.6v10.5c0,2.6,0.1,4.9,0.7,8.8h-10L96.2,56z M96.1,48.4v-2.5  c-6.3-0.5-10.7,1-10.7,5.1c0,2.6,1.9,4,4.7,4C93.2,54.9,96.1,52.7,96.1,48.4z M144.5,41.4V61h-10.2V43c0-1.3,0-3.1-0.1-4.8  c-0.3-3.5-2.2-5.7-6.2-5.7s-7,3.6-7,12.5v16h-10.2V26.3H121v5.5l2.9-4.2c2.3-1.6,4.8-2.2,8.1-2.2c7.3,0,11.5,3.5,12.3,9.6  C144.5,36.8,144.5,38.6,144.5,41.4z M176.1,61h-29.3v-6.2L165,33.2h-17.2v-6.6h28.1v6.5l-18.1,21.4h18.3V61z M198.2,56l-1.6,3.7  c-2.5,1.6-5.4,2.3-8.6,2.3c-5.9,0-11.1-3.6-11.1-10.2c0-7.6,6.7-12,18.9-12h2.2v-0.6c0-0.9,0-1.8-0.1-3c-0.2-2.1-1.8-3.8-4.8-3.8  c-3.2,0-4.9,2-5.2,5.4h-9.8c0.2-7.9,6.9-12.4,15.4-12.4c10.3,0,14,4.5,14.5,10.7c0.1,1.6,0.2,3.6,0.2,5.6v10.5  c0,2.6,0.1,4.9,0.7,8.8h-10L198.2,56z M198,48.4v-2.5c-6.3-0.5-10.7,1-10.7,5.1c0,2.6,1.9,4,4.7,4C195.1,54.9,198,52.7,198,48.4z   M240.1,36.4H230c-0.6-2.9-2.1-4.5-4.6-4.5c-2.2,0-3.6,1.4-3.6,3.2c0,2.3,1.9,3.6,8.1,5.2c6.7,1.7,11,4.5,11,11  c0,7.2-6.6,10.6-14.7,10.6c-8.9,0-15-3.8-15.9-11.6h10.1c0.7,3.3,3.1,5,5.9,5c2.5,0,4.4-1,4.4-3.3c0-2.5-2.2-3.8-8.3-5.3  c-6.5-1.6-10.7-4.6-10.7-10.5c0-6.8,5.7-10.9,14.5-10.9C234.4,25.4,239.2,30.1,240.1,36.4z"></path>
</svg>