<?xml version="1.0" encoding="UTF-8"?>
<svg id="Capa_2" data-name="Capa 2" xmlns="http://www.w3.org/2000/svg" viewBox="0 0 791.67 317.97">
  <defs>
    <style>
      .cls-1 {
        fill: #254441;
      }

      .cls-2 {
        fill: #1e1e1c;
      }

      .cls-3 {
        fill: #ea4d50;
      }
    </style>
  </defs>
  <g id="Capa_1-2" data-name="Capa 1">
    <g>
      <path class="cls-3" d="M0,128.99c6.08-3.79,11.65-7.27,18.01-11.24C5.7,96.53.24,74.05,1.86,50.15c.5-7.34,1.69-14.84,3.97-21.8C12.78,7.19,28.25-2.51,48.8.55c16.13,2.4,28.4,17.83,30.19,37.22,2.71,29.47-5.08,55.75-25.49,80.54,12.04,5.91,15.84,8.11,22.14,11.69l-1.49,19.6c-12.35-5.76-21.61-11.68-25.83-14.57-8.93-6.11-7.81-6.24-17.57.27-4.28,2.85-15.95,10.87-21.04,13.3-3.48-7.04-6.57-13.29-9.71-19.62h0ZM37.82,98.14c12.33-18.79,18.69-37.72,15.08-58.5-.47-2.7-2.29-5.17-4.51-7.57-3.97-4.3-10.75-4.46-14.78-.21-1.95,2.05-3.56,4.2-4.22,6.6-5.53,20.26-1.27,39.66,8.43,59.68h0Z"/>
      <path class="cls-1" d="M186.3,272.3c5.27-2.99,10.09-5.72,15.61-8.85-10.67-16.72-15.4-34.42-14-53.25.43-5.78,1.46-11.69,3.44-17.18,6.02-16.66,19.43-24.3,37.23-21.89,13.98,1.89,24.62,14.05,26.16,29.32,2.35,23.21-4.4,43.91-22.09,63.44,10.43,4.65,13.73,6.39,19.19,9.21l-1.3,15.44c-10.7-4.53-18.73-9.2-22.39-11.48-7.74-4.81-6.76-4.91-15.23.22-3.71,2.25-13.83,8.56-18.23,10.48-3.02-5.54-5.69-10.47-8.41-15.46h0ZM219.08,248c10.69-14.8,16.19-29.71,13.07-46.08-.41-2.13-1.99-4.07-3.91-5.97-3.44-3.38-9.32-3.51-12.81-.16-1.69,1.62-3.09,3.31-3.66,5.2-4.79,15.96-1.11,31.24,7.31,47.01h0Z"/>
      <path class="cls-2" d="M145.38,136.36c-6.01,9.86-15.56,15.56-26.5,15.56-20.49,0-36.66-17.87-36.66-42.06s16.18-41.59,36.66-41.59c10.94,0,20.49,5.7,26.5,15.41v-13.25h21.41v79.18h-21.41v-13.25ZM124.12,132.04c9.55,0,17.56-6.01,21.26-13.09v-17.87c-3.85-7.09-11.71-13.09-21.26-13.09-11.25,0-20.33,9.09-20.33,21.88s9.09,22.18,20.33,22.18h0Z"/>
      <path class="cls-2" d="M256.9,151.92c-25.42,0-43.44-18.18-43.44-42.06s18.02-41.59,43.44-41.59c20.33,0,36.66,12.17,40.52,31.73h-20.64c-3.24-7.09-10.63-12.17-19.87-12.17-13.25,0-22.65,9.71-22.65,22.03s9.4,22.49,22.65,22.49c9.24,0,16.33-4.78,19.72-11.71h20.8c-3.7,19.41-20.33,31.27-40.52,31.27h0Z"/>
      <path class="cls-3" d="M404.62,34.07h22.03v22.65h-22.03v-22.65ZM404.62,70.42h22.03v79.18h-22.03v-79.18Z"/>
      <path class="cls-2" d="M484.41,151.92c-25.42,0-43.44-18.18-43.44-42.06s18.02-41.59,43.44-41.59c20.33,0,36.66,12.17,40.52,31.73h-20.64c-3.24-7.09-10.63-12.17-19.87-12.17-13.25,0-22.65,9.71-22.65,22.03s9.4,22.49,22.65,22.49c9.24,0,16.33-4.78,19.72-11.71h20.8c-3.7,19.41-20.33,31.27-40.52,31.27h0Z"/>
      <path class="cls-2" d="M597.64,136.36c-6.01,9.86-15.56,15.56-26.5,15.56-20.49,0-36.66-17.87-36.66-42.06s16.17-41.59,36.66-41.59c10.94,0,20.49,5.7,26.5,15.41v-13.25h21.41v79.18h-21.41v-13.25ZM576.38,132.04c9.55,0,17.56-6.01,21.26-13.09v-17.87c-3.85-7.09-11.71-13.09-21.26-13.09-11.25,0-20.33,9.09-20.33,21.88s9.09,22.18,20.33,22.18h0Z"/>
      <path class="cls-2" d="M64.46,272.98c-6.01,9.86-15.56,15.56-26.5,15.56-20.49,0-36.66-17.87-36.66-42.06s16.18-41.59,36.66-41.59c10.94,0,20.49,5.7,26.5,15.41v-49.6h21.41v115.54h-21.41v-13.25ZM43.2,268.67c9.55,0,17.56-6.01,21.26-13.09v-17.87c-3.85-7.09-11.71-13.09-21.26-13.09-11.25,0-20.33,9.09-20.33,21.88s9.09,22.18,20.33,22.18h0Z"/>
      <path class="cls-2" d="M141.64,288.54c-24.03,0-41.75-18.02-41.75-42.36,0-22.95,18.02-41.29,41.44-41.29,26.65,0,40.82,22.03,40.82,44.67h-63.01c1.54,12.79,10.32,20.49,22.49,20.49,8.47,0,16.64-4.31,19.87-11.55h19.56c-4.16,18.49-20.49,30.04-39.44,30.04h0ZM120.38,237.24h40.67c-2.46-9.09-9.4-14.63-19.56-14.63s-18.18,5.54-21.1,14.63h0Z"/>
      <path class="cls-2" d="M417.74,289.47c-24.03,0-41.75-18.02-41.75-42.36,0-22.95,18.02-41.29,41.44-41.29,26.65,0,40.82,22.03,40.82,44.67h-63.01c1.54,12.79,10.32,20.49,22.49,20.49,8.47,0,16.64-4.31,19.87-11.55h19.56c-4.16,18.48-20.49,30.04-39.44,30.04h0ZM396.48,238.17h40.67c-2.46-9.09-9.4-14.63-19.56-14.63s-18.18,5.54-21.1,14.63h0Z"/>
      <path class="cls-2" d="M528.19,317.97h-43.9v-16.95h42.36c4.16,0,6.62-2.15,6.62-6.78v-20.8c-6.01,9.4-15.56,14.94-26.5,14.94-20.49,0-36.66-17.25-36.66-40.67s16.18-41.9,36.66-41.9c10.94,0,20.49,5.7,26.5,15.56v-13.4h21.41v86.88c0,14.17-8.47,23.11-26.5,23.11h0ZM512.01,269.6c9.55,0,17.41-5.85,21.26-13.09v-17.72c-3.7-7.09-11.71-13.25-21.26-13.25-11.25,0-20.33,9.24-20.33,22.18s9.09,21.88,20.33,21.88h0Z"/>
      <path class="cls-2" d="M625.7,273.91c-6.16,9.4-16.64,15.56-27.73,15.56-17.41,0-27.88-12.02-27.88-30.19v-51.3h21.88v45.29c0,9.55,4.78,16.33,15.25,16.33,8.16,0,14.79-4.62,18.49-9.09v-52.53h22.03v79.18h-22.03v-13.25Z"/>
      <path class="cls-2" d="M388.91,99.69v49.92h-22.02v-44.23c0-10.16-4.63-17.41-16.02-17.41-8.17,0-14.64,4.33-18.03,8.79v52.25c-3.16-1.09-7-1.74-11.14-1.82-4.01-.07-7.74.42-10.88,1.32V34.06h22.02v48.99c5.85-9.09,15.87-14.79,26.97-14.79,18.33,0,29.11,12.48,29.11,31.43Z"/>
      <path class="cls-2" d="M366.25,248.83c0,6.63-1.72,12.9-5.18,18.8-3.46,5.88-8.49,10.61-15.1,14.19-6.62,3.58-14.4,5.35-23.37,5.35-8.5,0-16.14-1.52-22.92-4.59-6.8-3.07-12.15-7.42-16.02-13.07-3.88-5.63-5.81-12.21-5.81-19.73h22.19c.48,5.63,2.64,10.28,6.47,13.9,3.83,3.64,9.19,5.46,16.11,5.46s12.73-1.79,16.74-5.36c3.99-3.58,6-8.17,6-13.82,0-4.38-1.24-7.95-3.73-10.71-2.49-2.76-5.58-4.9-9.29-6.4-3.69-1.5-8.82-3.12-15.37-4.88-8.25-2.26-14.95-4.54-20.1-6.87-5.16-2.31-9.56-5.91-13.2-10.79-3.64-4.9-5.45-11.41-5.45-19.55,0-7.52,1.8-14.1,5.45-19.75,3.64-5.63,8.74-9.96,15.29-12.97.92-.42,1.85-.8,2.81-1.17,5.88-2.22,12.53-3.34,19.93-3.34s13.92,1.15,19.68,3.43c3.84,1.52,7.32,3.54,10.44,6.07,7.82,6.33,12.15,15,13,26.03h-22.92c-.37-4.76-2.54-8.82-6.55-12.21-3.99-3.38-9.27-5.08-15.82-5.08-5.95,0-10.81,1.57-14.57,4.71-3.76,3.12-5.63,7.64-5.63,13.53,0,4.01,1.19,7.3,3.54,9.86,2.37,2.57,5.36,4.61,9.01,6.12,3.64,1.5,8.62,3.12,14.92,4.88,8.37,2.39,15.2,4.76,20.47,7.15,5.28,2.37,9.77,6.05,13.47,10.99,3.71,4.95,5.55,11.56,5.55,19.83Z"/>
      <path class="cls-2" d="M711.49,205.82v1.75c-1.8,1.19-12.7,9.02-10.66,23.89-6.53,1.57-12.01,4.31-15.07,6.87v48.84h-22.02v-79.2h22.02v12.8c5.71-8.79,14.64-14.95,25.73-14.95Z"/>
      <path class="cls-3" d="M791.67,230.88c0,7.84-3.88,14.75-8.12,20.85-4.64,6.72-9.67,13.15-15.1,19.18-5.43,6.08-11.29,11.78-17.71,16.67-.87.85-1.95,1.32-3.02,1.35-1.07-.03-2.16-.5-3.02-1.35-6.42-4.9-12.26-10.59-17.71-16.67-5.41-6.03-10.46-12.46-15.1-19.18-3.89-5.6-7.49-11.9-8.04-18.95-.05-.63-.08-1.27-.08-1.9v-.02c0-6.2,2.22-12.38,6.65-17.13.35-.37.72-.74,1.09-1.07,1.64-1.55,3.44-2.81,5.35-3.74,8.42-4.19,18.76-2.59,25.71,4.81l5.16,5.51,5.16-5.51c8.87-9.46,23.27-9.46,32.15,0,4.44,4.75,6.65,10.94,6.65,17.14Z"/>
    </g>
  </g>
</svg>