<svg width="1819" height="304" viewBox="0 0 1819 304" fill="none" xmlns="http://www.w3.org/2000/svg">
<path d="M358.892 218.867C354.065 218.867 350.334 217.55 347.701 214.917C345.067 212.174 343.751 208.388 343.751 203.561V116.659C343.751 111.722 345.067 107.936 347.701 105.303C350.444 102.669 354.229 101.353 359.057 101.353H399.545C412.712 101.353 422.861 104.754 429.994 111.557C437.235 118.25 440.856 127.522 440.856 139.372C440.856 151.222 437.235 160.549 429.994 167.352C422.861 174.045 412.712 177.391 399.545 177.391H374.034V203.561C374.034 208.388 372.773 212.174 370.249 214.917C367.725 217.55 363.94 218.867 358.892 218.867ZM374.034 154.185H394.278C399.984 154.185 404.373 152.978 407.445 150.564C410.518 148.04 412.054 144.31 412.054 139.372C412.054 134.325 410.518 130.594 407.445 128.18C404.373 125.766 399.984 124.559 394.278 124.559H374.034V154.185ZM470.281 217.386C465.453 217.386 461.668 216.069 458.925 213.436C456.291 210.693 454.975 206.907 454.975 202.079V116.495C454.975 111.557 456.291 107.772 458.925 105.138C461.558 102.505 465.289 101.188 470.116 101.188C475.054 101.188 478.785 102.505 481.308 105.138C483.942 107.772 485.258 111.557 485.258 116.495V192.204H525.417C529.587 192.204 532.769 193.301 534.963 195.496C537.267 197.581 538.42 200.653 538.42 204.713C538.42 208.772 537.267 211.9 534.963 214.094C532.769 216.289 529.587 217.386 525.417 217.386H470.281ZM555.236 218.867C551.834 218.867 548.981 218.099 546.677 216.563C544.373 214.917 542.947 212.722 542.398 209.979C541.849 207.127 542.343 203.945 543.879 200.433L584.861 112.215C586.836 107.936 589.25 104.809 592.103 102.834C595.065 100.859 598.412 99.8715 602.143 99.8715C605.873 99.8715 609.11 100.859 611.853 102.834C614.706 104.809 617.175 107.936 619.26 112.215L660.241 200.433C661.997 203.945 662.6 207.127 662.052 209.979C661.613 212.832 660.241 215.027 657.937 216.563C655.743 218.099 653 218.867 649.708 218.867C645.319 218.867 641.917 217.879 639.504 215.904C637.199 213.929 635.115 210.747 633.249 206.358L624.362 185.456L635.883 193.85H568.073L579.759 185.456L570.871 206.358C568.896 210.747 566.866 213.929 564.782 215.904C562.697 217.879 559.515 218.867 555.236 218.867ZM601.813 132.953L582.721 178.543L578.113 170.643H626.008L621.399 178.543L602.143 132.953H601.813ZM689.487 218.867C684.879 218.867 681.368 217.66 678.954 215.246C676.54 212.832 675.333 209.266 675.333 204.548V114.849C675.333 110.021 676.54 106.345 678.954 103.822C681.368 101.188 684.55 99.8715 688.5 99.8715C692.011 99.8715 694.754 100.53 696.729 101.846C698.704 103.163 700.899 105.358 703.313 108.43L755.486 173.606H750.878V114.026C750.878 109.417 752.03 105.906 754.334 103.492C756.748 101.078 760.259 99.8715 764.868 99.8715C769.476 99.8715 772.933 101.078 775.237 103.492C777.651 105.906 778.858 109.417 778.858 114.026V205.206C778.858 209.376 777.76 212.722 775.566 215.246C773.371 217.66 770.409 218.867 766.678 218.867C762.948 218.867 759.985 218.209 757.791 216.892C755.706 215.466 753.457 213.271 751.043 210.309L698.869 144.968H703.477V204.548C703.477 209.266 702.27 212.832 699.856 215.246C697.552 217.66 694.096 218.867 689.487 218.867ZM815.2 218.867C810.372 218.867 806.642 217.55 804.008 214.917C801.375 212.174 800.058 208.334 800.058 203.396V115.343C800.058 110.295 801.375 106.455 804.008 103.822C806.642 101.188 810.372 99.8715 815.2 99.8715C820.138 99.8715 823.868 101.188 826.392 103.822C829.025 106.455 830.342 110.295 830.342 115.343V203.396C830.342 208.334 829.08 212.174 826.557 214.917C824.033 217.55 820.248 218.867 815.2 218.867ZM866.637 218.867C861.809 218.867 858.024 217.55 855.281 214.917C852.647 212.174 851.331 208.279 851.331 203.231V116.988C851.331 111.941 852.647 108.101 855.281 105.467C858.024 102.724 861.974 101.353 867.131 101.353H921.938C925.888 101.353 928.851 102.34 930.826 104.315C932.801 106.29 933.788 109.143 933.788 112.874C933.788 116.714 932.801 119.677 930.826 121.761C928.851 123.736 925.888 124.724 921.938 124.724H881.614V148.095H918.317C922.157 148.095 925.065 149.083 927.04 151.058C929.125 153.033 930.167 155.886 930.167 159.616C930.167 163.456 929.125 166.364 927.04 168.339C925.065 170.314 922.157 171.302 918.317 171.302H881.614V203.231C881.614 213.655 876.622 218.867 866.637 218.867ZM961.784 218.867C956.957 218.867 953.226 217.55 950.593 214.917C947.959 212.174 946.643 208.334 946.643 203.396V115.343C946.643 110.295 947.959 106.455 950.593 103.822C953.226 101.188 956.957 99.8715 961.784 99.8715C966.722 99.8715 970.453 101.188 972.976 103.822C975.61 106.455 976.926 110.295 976.926 115.343V203.396C976.926 208.334 975.665 212.174 973.141 214.917C970.617 217.55 966.832 218.867 961.784 218.867ZM1056.51 219.196C1043.67 219.196 1032.64 216.727 1023.43 211.79C1014.21 206.852 1007.13 199.885 1002.19 190.887C997.366 181.89 994.952 171.357 994.952 159.287C994.952 150.29 996.324 142.115 999.067 134.764C1001.92 127.412 1005.98 121.103 1011.25 115.836C1016.62 110.57 1023.1 106.565 1030.67 103.822C1038.35 100.969 1046.96 99.5423 1056.51 99.5423C1061.55 99.5423 1066.77 100.146 1072.14 101.353C1077.63 102.45 1082.46 104.151 1086.63 106.455C1089.7 108.101 1091.84 110.185 1093.05 112.709C1094.25 115.233 1094.64 117.811 1094.2 120.445C1093.87 123.078 1092.94 125.437 1091.4 127.522C1089.86 129.607 1087.89 131.033 1085.47 131.801C1083.06 132.459 1080.43 132.075 1077.57 130.649C1074.28 129.113 1070.99 127.961 1067.7 127.193C1064.52 126.315 1061.17 125.876 1057.66 125.876C1050.86 125.876 1045.15 127.193 1040.54 129.826C1036.04 132.35 1032.64 136.08 1030.34 141.018C1028.03 145.955 1026.88 152.045 1026.88 159.287C1026.88 166.529 1028.03 172.673 1030.34 177.721C1032.64 182.658 1036.04 186.444 1040.54 189.077C1045.15 191.601 1050.86 192.862 1057.66 192.862C1060.51 192.862 1063.58 192.533 1066.88 191.875C1070.17 191.107 1073.4 189.955 1076.59 188.419C1079.88 186.992 1082.79 186.608 1085.31 187.267C1087.94 187.925 1090.03 189.242 1091.56 191.217C1093.21 193.192 1094.25 195.496 1094.69 198.129C1095.13 200.653 1094.75 203.176 1093.54 205.7C1092.44 208.224 1090.47 210.254 1087.61 211.79C1083.77 214.094 1079 215.904 1073.3 217.221C1067.7 218.538 1062.1 219.196 1056.51 219.196ZM1114.73 218.867C1111.33 218.867 1108.48 218.099 1106.17 216.563C1103.87 214.917 1102.44 212.722 1101.89 209.979C1101.34 207.127 1101.84 203.945 1103.37 200.433L1144.36 112.215C1146.33 107.936 1148.75 104.809 1151.6 102.834C1154.56 100.859 1157.91 99.8715 1161.64 99.8715C1165.37 99.8715 1168.61 100.859 1171.35 102.834C1174.2 104.809 1176.67 107.936 1178.75 112.215L1219.74 200.433C1221.49 203.945 1222.1 207.127 1221.55 209.979C1221.11 212.832 1219.74 215.027 1217.43 216.563C1215.24 218.099 1212.49 218.867 1209.2 218.867C1204.81 218.867 1201.41 217.879 1199 215.904C1196.69 213.929 1194.61 210.747 1192.74 206.358L1183.86 185.456L1195.38 193.85H1127.57L1139.25 185.456L1130.37 206.358C1128.39 210.747 1126.36 213.929 1124.28 215.904C1122.19 217.879 1119.01 218.867 1114.73 218.867ZM1161.31 132.953L1142.22 178.543L1137.61 170.643H1185.5L1180.89 178.543L1161.64 132.953H1161.31ZM1172.83 90.1609C1170.96 92.0262 1168.93 92.9588 1166.74 92.9588C1164.66 92.9588 1162.74 92.3554 1160.98 91.1484C1159.33 89.8317 1158.24 88.2407 1157.69 86.3754C1157.14 84.4004 1157.58 82.3705 1159 80.2857L1169.7 64.3209C1171.24 62.0167 1173.1 60.6452 1175.3 60.2063C1177.49 59.7674 1179.63 59.9868 1181.72 60.8646C1183.8 61.6327 1185.56 62.8945 1186.98 64.6501C1188.41 66.2959 1189.18 68.1612 1189.29 70.246C1189.4 72.3308 1188.47 74.3606 1186.49 76.3357L1172.83 90.1609ZM1295.18 218.823C1290.92 218.823 1287.62 217.652 1285.28 215.31C1283.04 212.968 1281.93 209.669 1281.93 205.411V116.797C1281.93 112.433 1283.15 109.133 1285.6 106.898C1288.05 104.556 1291.51 103.385 1295.98 103.385C1299.7 103.385 1302.63 104.131 1304.76 105.621C1306.99 107.005 1309.02 109.346 1310.83 112.646L1345.15 174.276H1339.57L1373.73 112.646C1375.65 109.346 1377.67 107.005 1379.8 105.621C1382.04 104.131 1385.02 103.385 1388.74 103.385C1393 103.385 1396.25 104.556 1398.48 106.898C1400.82 109.133 1401.99 112.433 1401.99 116.797V205.411C1401.99 209.669 1400.88 212.968 1398.64 215.31C1396.41 217.652 1393.11 218.823 1388.74 218.823C1384.48 218.823 1381.18 217.652 1378.84 215.31C1376.61 212.968 1375.49 209.669 1375.49 205.411V150.486H1378.84L1353.14 195.192C1351.65 197.534 1350.05 199.29 1348.35 200.461C1346.75 201.632 1344.57 202.218 1341.8 202.218C1339.14 202.218 1336.96 201.632 1335.25 200.461C1333.55 199.29 1332.01 197.534 1330.62 195.192L1304.76 150.327H1308.43V205.411C1308.43 209.669 1307.31 212.968 1305.08 215.31C1302.84 217.652 1299.54 218.823 1295.18 218.823ZM1438.04 217.386C1433.04 217.386 1429.21 216.108 1426.55 213.554C1423.99 210.893 1422.72 207.114 1422.72 202.218V119.991C1422.72 115.094 1423.99 111.369 1426.55 108.814C1429.21 106.153 1433.04 104.822 1438.04 104.822H1492.17C1496 104.822 1498.88 105.78 1500.79 107.696C1502.71 109.612 1503.67 112.38 1503.67 115.999C1503.67 119.724 1502.71 122.598 1500.79 124.621C1498.88 126.537 1496 127.495 1492.17 127.495H1450.82V148.89H1488.66C1492.38 148.89 1495.2 149.848 1497.12 151.764C1499.14 153.68 1500.15 156.5 1500.15 160.226C1500.15 163.951 1499.14 166.772 1497.12 168.688C1495.2 170.604 1492.38 171.562 1488.66 171.562H1450.82V194.713H1492.17C1496 194.713 1498.88 195.725 1500.79 197.747C1502.71 199.663 1503.67 202.431 1503.67 206.05C1503.67 209.775 1502.71 212.596 1500.79 214.512C1498.88 216.428 1496 217.386 1492.17 217.386H1438.04ZM1524.55 218.663C1520.29 218.876 1516.99 217.812 1514.65 215.47C1512.41 213.022 1511.3 209.935 1511.3 206.209C1511.3 203.335 1512.09 200.834 1513.69 198.705C1515.29 196.576 1517.68 195.405 1520.88 195.192L1525.35 194.873C1529.18 194.66 1532 193.755 1533.81 192.159C1535.62 190.456 1536.52 187.688 1536.52 183.856V118.234C1536.52 113.338 1537.8 109.666 1540.36 107.217C1542.91 104.663 1546.53 103.385 1551.21 103.385C1555.9 103.385 1559.51 104.663 1562.07 107.217C1564.62 109.666 1565.9 113.338 1565.9 118.234V183.377C1565.9 190.722 1564.57 196.949 1561.91 202.058C1559.25 207.061 1555.26 210.946 1549.94 213.713C1544.72 216.375 1538.17 217.918 1530.3 218.344L1524.55 218.663ZM1640.41 219.142C1629.02 219.142 1619.01 216.747 1610.39 211.957C1601.77 207.061 1595.06 200.248 1590.27 191.52C1585.59 182.792 1583.25 172.627 1583.25 161.024C1583.25 152.296 1584.58 144.366 1587.24 137.234C1590.01 130.103 1593.89 123.982 1598.9 118.873C1604.01 113.764 1610.07 109.879 1617.1 107.217C1624.12 104.45 1631.89 103.066 1640.41 103.066C1651.8 103.066 1661.75 105.461 1670.27 110.251C1678.89 115.041 1685.59 121.8 1690.38 130.528C1695.17 139.15 1697.57 149.316 1697.57 161.024C1697.57 169.753 1696.18 177.683 1693.42 184.814C1690.76 191.946 1686.87 198.12 1681.76 203.335C1676.76 208.445 1670.74 212.383 1663.72 215.15C1656.69 217.812 1648.92 219.142 1640.41 219.142ZM1640.41 194.554C1646.05 194.554 1650.84 193.223 1654.78 190.562C1658.72 187.901 1661.75 184.069 1663.88 179.066C1666.01 174.064 1667.07 168.05 1667.07 161.024C1667.07 150.486 1664.73 142.29 1660.05 136.436C1655.36 130.582 1648.82 127.654 1640.41 127.654C1634.87 127.654 1630.08 128.985 1626.04 131.646C1622.1 134.201 1619.07 137.979 1616.94 142.982C1614.81 147.879 1613.74 153.893 1613.74 161.024C1613.74 171.562 1616.09 179.811 1620.77 185.772C1625.45 191.627 1632 194.554 1640.41 194.554ZM1729.6 218.823C1724.92 218.823 1721.3 217.545 1718.75 214.991C1716.19 212.33 1714.91 208.657 1714.91 203.974V119.671C1714.91 114.881 1716.19 111.209 1718.75 108.654C1721.41 106.1 1725.08 104.822 1729.76 104.822H1769.04C1781.81 104.822 1791.66 107.963 1798.58 114.243C1805.6 120.416 1809.12 129.038 1809.12 140.108C1809.12 147.24 1807.52 153.467 1804.33 158.789C1801.24 164.005 1796.72 168.05 1790.75 170.923C1784.9 173.691 1777.66 175.075 1769.04 175.075L1770.32 172.201H1777.98C1782.56 172.201 1786.6 173.318 1790.12 175.554C1793.63 177.683 1796.56 180.982 1798.9 185.453L1806.88 199.823C1808.58 202.91 1809.38 205.943 1809.28 208.924C1809.17 211.797 1808 214.192 1805.76 216.108C1803.63 217.918 1800.49 218.823 1796.34 218.823C1792.19 218.823 1788.79 217.971 1786.12 216.268C1783.57 214.565 1781.28 211.904 1779.26 208.285L1764.73 181.621C1763.45 179.279 1761.8 177.683 1759.78 176.831C1757.86 175.873 1755.63 175.394 1753.07 175.394H1744.29V203.974C1744.29 208.657 1743.07 212.33 1740.62 214.991C1738.17 217.545 1734.5 218.823 1729.6 218.823ZM1744.29 154.638H1763.77C1769.41 154.638 1773.72 153.52 1776.7 151.285C1779.68 149.049 1781.17 145.59 1781.17 140.907C1781.17 136.436 1779.68 133.083 1776.7 130.848C1773.72 128.506 1769.41 127.335 1763.77 127.335H1744.29V154.638Z" fill="#061027"/>
<path d="M276.44 36.0599C276.44 16.1399 259.29 0 238.12 0H171.28V18.34C171.28 33.24 184.12 45.3199 199.95 45.3199H228.28V65.29C228.28 81.8 242.5 95.1801 260.04 95.1801H276.44V40.37C276.44 39.38 276.39 38.4099 276.32 37.4399C276.39 36.9999 276.44 36.5399 276.44 36.0599Z" fill="#1AD6B4"/>
<path d="M98.49 56.3901C44.1 56.3901 0 97.6901 0 148.63C0 149.36 0.00999878 150.08 0.0299988 150.81C0.00999878 151 0 151.19 0 151.39V303.49H10.34C38.15 303.49 60.7 282.37 60.7 256.32L61.02 234.66L60.87 233.9C72.46 238.39 85.16 240.87 98.48 240.87C152.87 240.87 196.97 199.57 196.97 148.63C196.98 97.6901 152.88 56.3901 98.49 56.3901ZM98.49 198.27C69.22 198.27 45.49 176.05 45.49 148.63C45.49 121.21 69.22 98.9901 98.49 98.9901C127.76 98.9901 151.49 121.21 151.49 148.63C151.49 176.05 127.76 198.27 98.49 198.27Z" fill="#165EFE"/>
</svg>
