<?xml version="1.0" encoding="UTF-8"?><svg id="Capa_2" xmlns="http://www.w3.org/2000/svg" viewBox="0 0 565.98 140.83"><defs><style>.cls-1{fill:#aa8abf;stroke-width:0px;}</style></defs><g id="Capa_1-2"><path class="cls-1" d="m26.01,43.62c3.84-2.06,8.23-3.09,13.16-3.09,5.74,0,10.93,1.42,15.58,4.24,4.65,2.83,8.33,6.85,11.04,12.07,2.71,5.22,4.06,11.26,4.06,18.13s-1.36,12.96-4.06,18.25c-2.71,5.3-6.39,9.4-11.04,12.31-4.65,2.91-9.84,4.37-15.58,4.37-4.93,0-9.28-1.01-13.04-3.03-3.76-2.02-6.81-4.57-9.16-7.64v41.6H0V41.62h16.98v9.7c2.18-3.07,5.19-5.64,9.03-7.7Zm24.01,20.86c-1.66-2.95-3.84-5.19-6.55-6.73-2.71-1.54-5.64-2.3-8.79-2.3s-5.96.79-8.67,2.36c-2.71,1.58-4.89,3.86-6.55,6.85-1.66,2.99-2.49,6.51-2.49,10.55s.83,7.56,2.49,10.55c1.66,2.99,3.84,5.28,6.55,6.85,2.71,1.58,5.6,2.36,8.67,2.36s6.08-.81,8.79-2.43c2.71-1.62,4.89-3.92,6.55-6.91,1.66-2.99,2.49-6.55,2.49-10.67s-.83-7.54-2.49-10.49Z"/><path class="cls-1" d="m81.92,56.9c2.71-5.25,6.39-9.3,11.04-12.13,4.65-2.83,9.84-4.24,15.58-4.24,5.01,0,9.4,1.01,13.16,3.03,3.76,2.02,6.77,4.57,9.04,7.64v-9.58h17.1v67.19h-17.1v-9.82c-2.18,3.15-5.2,5.76-9.04,7.82-3.84,2.06-8.27,3.09-13.28,3.09-5.66,0-10.82-1.46-15.46-4.37-4.65-2.91-8.33-7.01-11.04-12.31-2.71-5.3-4.06-11.38-4.06-18.25s1.35-12.81,4.06-18.07Zm46.39,7.7c-1.62-2.95-3.8-5.22-6.55-6.79-2.75-1.58-5.7-2.36-8.85-2.36s-6.06.77-8.73,2.3c-2.67,1.54-4.83,3.78-6.49,6.73-1.66,2.95-2.49,6.45-2.49,10.49s.83,7.58,2.49,10.61c1.66,3.03,3.84,5.36,6.55,6.97,2.71,1.62,5.6,2.43,8.67,2.43s6.1-.79,8.85-2.36c2.75-1.58,4.93-3.84,6.55-6.79,1.62-2.95,2.43-6.49,2.43-10.61s-.81-7.66-2.43-10.61Z"/><path class="cls-1" d="m221.09,48.23c4.93,5.05,7.4,12.11,7.4,21.16v39.42h-16.98v-37.11c0-5.34-1.33-9.44-4-12.31-2.67-2.87-6.31-4.31-10.92-4.31s-8.39,1.44-11.1,4.31c-2.71,2.87-4.06,6.97-4.06,12.31v37.11h-16.98V41.62h16.98v8.37c2.26-2.91,5.15-5.19,8.67-6.85,3.52-1.66,7.38-2.49,11.58-2.49,8,0,14.47,2.53,19.41,7.58Z"/><path class="cls-1" d="m244.32,56.9c2.71-5.25,6.39-9.3,11.04-12.13,4.65-2.83,9.84-4.24,15.58-4.24,5.01,0,9.4,1.01,13.16,3.03,3.76,2.02,6.77,4.57,9.04,7.64v-9.58h17.1v67.19h-17.1v-9.82c-2.18,3.15-5.2,5.76-9.04,7.82-3.84,2.06-8.27,3.09-13.28,3.09-5.66,0-10.82-1.46-15.46-4.37-4.65-2.91-8.33-7.01-11.04-12.31-2.71-5.3-4.06-11.38-4.06-18.25s1.35-12.81,4.06-18.07Zm46.39,7.7c-1.62-2.95-3.8-5.22-6.55-6.79-2.75-1.58-5.7-2.36-8.85-2.36s-6.06.77-8.73,2.3c-2.67,1.54-4.83,3.78-6.49,6.73-1.66,2.95-2.49,6.45-2.49,10.49s.83,7.58,2.49,10.61c1.66,3.03,3.84,5.36,6.55,6.97,2.71,1.62,5.6,2.43,8.67,2.43s6.1-.79,8.85-2.36c2.75-1.58,4.93-3.84,6.55-6.79,1.62-2.95,2.43-6.49,2.43-10.61s-.81-7.66-2.43-10.61Z"/><path class="cls-1" d="m430.24,48.23c5.05,5.05,7.58,12.11,7.58,21.16v39.42h-16.98v-37.11c0-5.25-1.33-9.28-4-12.07-2.67-2.79-6.31-4.18-10.92-4.18s-8.27,1.39-10.98,4.18c-2.71,2.79-4.06,6.81-4.06,12.07v37.11h-16.98v-37.11c0-5.25-1.33-9.28-4-12.07s-6.31-4.18-10.92-4.18-8.39,1.39-11.1,4.18c-2.71,2.79-4.06,6.81-4.06,12.07v37.11h-16.98V41.62h16.98v8.13c2.18-2.83,4.99-5.05,8.43-6.67,3.44-1.62,7.22-2.43,11.34-2.43,5.26,0,9.95,1.11,14.07,3.34,4.12,2.22,7.32,5.4,9.58,9.52,2.18-3.88,5.36-6.99,9.52-9.34,4.16-2.34,8.67-3.52,13.52-3.52,8.25,0,14.9,2.53,19.95,7.58Z"/><path class="cls-1" d="m479.96,43.56c3.84-2.02,8.23-3.03,13.16-3.03,5.74,0,10.93,1.42,15.58,4.24,4.65,2.83,8.33,6.85,11.04,12.07,2.71,5.22,4.06,11.26,4.06,18.13s-1.36,12.96-4.06,18.25c-2.71,5.3-6.39,9.4-11.04,12.31-4.65,2.91-9.84,4.37-15.58,4.37-5.01,0-9.4-.99-13.16-2.97-3.76-1.98-6.77-4.55-9.03-7.7v9.58h-16.98V19.06h16.98v32.38c2.18-3.23,5.19-5.86,9.03-7.88Zm24.01,20.92c-1.66-2.95-3.84-5.19-6.55-6.73-2.71-1.54-5.64-2.3-8.79-2.3s-5.96.79-8.67,2.36c-2.71,1.58-4.89,3.86-6.55,6.85-1.66,2.99-2.49,6.51-2.49,10.55s.83,7.56,2.49,10.55c1.66,2.99,3.84,5.28,6.55,6.85,2.71,1.58,5.6,2.36,8.67,2.36s6.08-.81,8.79-2.43c2.71-1.62,4.89-3.92,6.55-6.91,1.66-2.99,2.49-6.55,2.49-10.67s-.83-7.54-2.49-10.49Z"/><rect class="cls-1" x="536.9" y="41.62" width="16.98" height="67.19"/><path class="cls-1" d="m565.98,13.98v7.92c0,1.43-.52,2.73-1.34,3.32l-14.24,10.37c-2.98,2.17-7.03,2.17-10.01,0l-14.24-10.37c-.82-.59-1.34-1.89-1.34-3.32v-7.92c0-2.74,1.82-4.5,3.34-3.24l16.19,13.36c.61.5,1.49.5,2.11,0l16.19-13.36c1.52-1.26,3.34.51,3.34,3.24Z"/><path class="cls-1" d="m8.48,10.33H3.47l-.83,2.39H0L4.52.15h2.93l4.52,12.58h-2.66l-.83-2.39Zm-.68-2.02l-1.82-5.26-1.82,5.26h3.64Z"/><path class="cls-1" d="m26.01,3.94c-.29-.53-.68-.93-1.19-1.21-.5-.28-1.09-.41-1.76-.41-.74,0-1.4.17-1.98.5-.58.34-1.03.82-1.35,1.44-.32.62-.49,1.34-.49,2.16s.16,1.57.5,2.2c.33.62.79,1.1,1.38,1.44.59.34,1.27.5,2.05.5.96,0,1.75-.25,2.36-.76.61-.51,1.01-1.22,1.21-2.13h-4.32v-1.93h6.8v2.2c-.17.88-.53,1.69-1.08,2.43-.55.74-1.26,1.34-2.13,1.79s-1.85.68-2.92.68c-1.21,0-2.31-.27-3.29-.82-.98-.55-1.75-1.31-2.3-2.28-.56-.97-.84-2.08-.84-3.31s.28-2.34.84-3.32,1.33-1.74,2.3-2.29c.98-.54,2.07-.82,3.27-.82,1.42,0,2.65.35,3.69,1.04,1.04.69,1.76,1.66,2.16,2.91h-2.9Z"/><path class="cls-1" d="m37.21,2.2v3.15h4.23v2h-4.23v3.33h4.77v2.05h-7.29V.15h7.29v2.05h-4.77Z"/><path class="cls-1" d="m58.61,12.73h-2.52l-5.71-8.62v8.62h-2.52V.15h2.52l5.71,8.64V.15h2.52v12.58Z"/><path class="cls-1" d="m64.92,3.11c.56-.98,1.32-1.74,2.29-2.29.97-.54,2.05-.82,3.25-.82,1.4,0,2.63.36,3.69,1.08,1.06.72,1.79,1.72,2.21,2.99h-2.9c-.29-.6-.69-1.05-1.22-1.35-.52-.3-1.13-.45-1.81-.45-.73,0-1.38.17-1.95.51-.57.34-1.01.82-1.33,1.45s-.48,1.36-.48,2.2.16,1.56.48,2.19.76,1.12,1.33,1.46c.57.34,1.22.51,1.95.51.68,0,1.29-.15,1.81-.46.52-.31.93-.76,1.22-1.36h2.9c-.42,1.28-1.16,2.28-2.21,3-1.05.71-2.28,1.07-3.7,1.07-1.2,0-2.28-.27-3.25-.82-.97-.55-1.73-1.31-2.29-2.28-.56-.97-.84-2.08-.84-3.31s.28-2.34.84-3.32Z"/><path class="cls-1" d="m84.64.16v12.56h-2.52V.16h2.52Z"/><path class="cls-1" d="m98.43,10.33h-5l-.83,2.39h-2.65L94.47.15h2.93l4.52,12.58h-2.66l-.83-2.39Zm-.68-2.02l-1.82-5.26-1.82,5.26h3.64Z"/><path class="cls-1" d="m122.97.94c1,.52,1.78,1.25,2.32,2.21.55.95.82,2.06.82,3.32s-.27,2.36-.82,3.3c-.55.94-1.32,1.67-2.32,2.19-1,.52-2.16.77-3.48.77h-4.39V.16h4.39c1.32,0,2.48.26,3.48.77Zm-.51,8.57c.72-.72,1.08-1.73,1.08-3.04s-.36-2.33-1.08-3.07c-.72-.74-1.74-1.11-3.06-1.11h-1.78v8.3h1.78c1.32,0,2.34-.36,3.06-1.08Z"/><path class="cls-1" d="m134.12,2.2v3.15h4.23v2h-4.23v3.33h4.77v2.05h-7.29V.15h7.29v2.05h-4.77Z"/><path class="cls-1" d="m166.36.16v12.56h-2.52V4.55l-3.37,8.17h-1.91l-3.38-8.17v8.17h-2.52V.16h2.86l4,9.34,4-9.34h2.84Z"/><path class="cls-1" d="m180.15,10.33h-5l-.83,2.39h-2.65L176.19.15h2.93l4.52,12.58h-2.66l-.83-2.39Zm-.68-2.02l-1.82-5.26-1.82,5.26h3.64Z"/><path class="cls-1" d="m195.41,12.73l-2.77-4.9h-1.19v4.9h-2.52V.16h4.72c.97,0,1.8.17,2.48.51.68.34,1.2.8,1.54,1.39.34.58.51,1.23.51,1.95,0,.83-.24,1.57-.72,2.24-.48.67-1.19,1.13-2.14,1.38l3.01,5.09h-2.92Zm-3.96-6.79h2.11c.68,0,1.19-.16,1.53-.49.34-.33.5-.79.5-1.38s-.17-1.02-.5-1.34c-.34-.32-.85-.48-1.53-.48h-2.11v3.69Z"/><path class="cls-1" d="m211.17,12.73l-4.57-5.6v5.6h-2.52V.16h2.52v5.63l4.57-5.63h3.04l-5.18,6.23,5.33,6.34h-3.19Z"/><path class="cls-1" d="m222.13,2.2v3.15h4.23v2h-4.23v3.33h4.77v2.05h-7.29V.15h7.29v2.05h-4.77Z"/><path class="cls-1" d="m241.33.16v2.03h-3.35v10.53h-2.52V2.2h-3.35V.16h9.22Z"/><path class="cls-1" d="m249.29.16v12.56h-2.52V.16h2.52Z"/><path class="cls-1" d="m266.12,12.73h-2.52l-5.71-8.62v8.62h-2.52V.15h2.52l5.71,8.64V.15h2.52v12.58Z"/><path class="cls-1" d="m280.95,3.94c-.29-.53-.68-.93-1.19-1.21-.5-.28-1.09-.41-1.76-.41-.74,0-1.4.17-1.98.5-.58.34-1.03.82-1.35,1.44-.32.62-.49,1.34-.49,2.16s.16,1.57.5,2.2c.33.62.79,1.1,1.38,1.44.59.34,1.27.5,2.05.5.96,0,1.75-.25,2.36-.76.61-.51,1.01-1.22,1.21-2.13h-4.32v-1.93h6.8v2.2c-.17.88-.53,1.69-1.08,2.43-.55.74-1.26,1.34-2.13,1.79s-1.85.68-2.92.68c-1.21,0-2.31-.27-3.29-.82-.98-.55-1.75-1.31-2.3-2.28-.56-.97-.84-2.08-.84-3.31s.28-2.34.84-3.32,1.33-1.74,2.3-2.29c.98-.54,2.07-.82,3.27-.82,1.42,0,2.65.35,3.69,1.04,1.04.69,1.76,1.66,2.16,2.91h-2.9Z"/></g></svg>