<?xml version="1.0" encoding="UTF-8"?><svg id="Capa_2" xmlns="http://www.w3.org/2000/svg" viewBox="0 0 565.98 130.51"><defs><style>.cls-1{fill:#aa8abf;stroke-width:0px;}</style></defs><g id="Capa_1-2"><path class="cls-1" d="m26.01,33.3c3.84-2.06,8.23-3.09,13.16-3.09,5.74,0,10.93,1.42,15.58,4.24,4.65,2.83,8.33,6.85,11.04,12.07,2.71,5.22,4.06,11.26,4.06,18.13s-1.36,12.96-4.06,18.25c-2.71,5.3-6.39,9.4-11.04,12.31-4.65,2.91-9.84,4.37-15.58,4.37-4.93,0-9.28-1.01-13.04-3.03-3.76-2.02-6.81-4.57-9.16-7.64v41.6H0V31.3h16.98v9.7c2.18-3.07,5.19-5.64,9.03-7.7Zm24.01,20.86c-1.66-2.95-3.84-5.19-6.55-6.73-2.71-1.54-5.64-2.3-8.79-2.3s-5.96.79-8.67,2.36c-2.71,1.58-4.89,3.86-6.55,6.85-1.66,2.99-2.49,6.51-2.49,10.55s.83,7.56,2.49,10.55c1.66,2.99,3.84,5.28,6.55,6.85,2.71,1.58,5.6,2.36,8.67,2.36s6.08-.81,8.79-2.43c2.71-1.62,4.89-3.92,6.55-6.91,1.66-2.99,2.49-6.55,2.49-10.67s-.83-7.54-2.49-10.49Z"/><path class="cls-1" d="m81.92,46.58c2.71-5.25,6.39-9.3,11.04-12.13,4.65-2.83,9.84-4.24,15.58-4.24,5.01,0,9.4,1.01,13.16,3.03,3.76,2.02,6.77,4.57,9.04,7.64v-9.58h17.1v67.19h-17.1v-9.82c-2.18,3.15-5.2,5.76-9.04,7.82-3.84,2.06-8.27,3.09-13.28,3.09-5.66,0-10.82-1.46-15.46-4.37-4.65-2.91-8.33-7.01-11.04-12.31-2.71-5.3-4.06-11.38-4.06-18.25s1.35-12.81,4.06-18.07Zm46.39,7.7c-1.62-2.95-3.8-5.22-6.55-6.79-2.75-1.58-5.7-2.36-8.85-2.36s-6.06.77-8.73,2.3c-2.67,1.54-4.83,3.78-6.49,6.73-1.66,2.95-2.49,6.45-2.49,10.49s.83,7.58,2.49,10.61c1.66,3.03,3.84,5.36,6.55,6.97,2.71,1.62,5.6,2.43,8.67,2.43s6.1-.79,8.85-2.36c2.75-1.58,4.93-3.84,6.55-6.79,1.62-2.95,2.43-6.49,2.43-10.61s-.81-7.66-2.43-10.61Z"/><path class="cls-1" d="m221.09,37.91c4.93,5.05,7.4,12.11,7.4,21.16v39.42h-16.98v-37.11c0-5.34-1.33-9.44-4-12.31-2.67-2.87-6.31-4.31-10.92-4.31s-8.39,1.44-11.1,4.31c-2.71,2.87-4.06,6.97-4.06,12.31v37.11h-16.98V31.3h16.98v8.37c2.26-2.91,5.15-5.19,8.67-6.85,3.52-1.66,7.38-2.49,11.58-2.49,8,0,14.47,2.53,19.41,7.58Z"/><path class="cls-1" d="m244.32,46.58c2.71-5.25,6.39-9.3,11.04-12.13,4.65-2.83,9.84-4.24,15.58-4.24,5.01,0,9.4,1.01,13.16,3.03,3.76,2.02,6.77,4.57,9.04,7.64v-9.58h17.1v67.19h-17.1v-9.82c-2.18,3.15-5.2,5.76-9.04,7.82-3.84,2.06-8.27,3.09-13.28,3.09-5.66,0-10.82-1.46-15.46-4.37-4.65-2.91-8.33-7.01-11.04-12.31-2.71-5.3-4.06-11.38-4.06-18.25s1.35-12.81,4.06-18.07Zm46.39,7.7c-1.62-2.95-3.8-5.22-6.55-6.79-2.75-1.58-5.7-2.36-8.85-2.36s-6.06.77-8.73,2.3c-2.67,1.54-4.83,3.78-6.49,6.73-1.66,2.95-2.49,6.45-2.49,10.49s.83,7.58,2.49,10.61c1.66,3.03,3.84,5.36,6.55,6.97,2.71,1.62,5.6,2.43,8.67,2.43s6.1-.79,8.85-2.36c2.75-1.58,4.93-3.84,6.55-6.79,1.62-2.95,2.43-6.49,2.43-10.61s-.81-7.66-2.43-10.61Z"/><path class="cls-1" d="m430.24,37.91c5.05,5.05,7.58,12.11,7.58,21.16v39.42h-16.98v-37.11c0-5.25-1.33-9.28-4-12.07-2.67-2.79-6.31-4.18-10.92-4.18s-8.27,1.39-10.98,4.18c-2.71,2.79-4.06,6.81-4.06,12.07v37.11h-16.98v-37.11c0-5.25-1.33-9.28-4-12.07s-6.31-4.18-10.92-4.18-8.39,1.39-11.1,4.18c-2.71,2.79-4.06,6.81-4.06,12.07v37.11h-16.98V31.3h16.98v8.13c2.18-2.83,4.99-5.05,8.43-6.67,3.44-1.62,7.22-2.43,11.34-2.43,5.26,0,9.95,1.11,14.07,3.34,4.12,2.22,7.32,5.4,9.58,9.52,2.18-3.88,5.36-6.99,9.52-9.34,4.16-2.34,8.67-3.52,13.52-3.52,8.25,0,14.9,2.53,19.95,7.58Z"/><path class="cls-1" d="m479.96,33.24c3.84-2.02,8.23-3.03,13.16-3.03,5.74,0,10.93,1.42,15.58,4.24,4.65,2.83,8.33,6.85,11.04,12.07,2.71,5.22,4.06,11.26,4.06,18.13s-1.36,12.96-4.06,18.25c-2.71,5.3-6.39,9.4-11.04,12.31-4.65,2.91-9.84,4.37-15.58,4.37-5.01,0-9.4-.99-13.16-2.97-3.76-1.98-6.77-4.55-9.03-7.7v9.58h-16.98V8.74h16.98v32.38c2.18-3.23,5.19-5.86,9.03-7.88Zm24.01,20.92c-1.66-2.95-3.84-5.19-6.55-6.73-2.71-1.54-5.64-2.3-8.79-2.3s-5.96.79-8.67,2.36c-2.71,1.58-4.89,3.86-6.55,6.85-1.66,2.99-2.49,6.51-2.49,10.55s.83,7.56,2.49,10.55c1.66,2.99,3.84,5.28,6.55,6.85,2.71,1.58,5.6,2.36,8.67,2.36s6.08-.81,8.79-2.43c2.71-1.62,4.89-3.92,6.55-6.91,1.66-2.99,2.49-6.55,2.49-10.67s-.83-7.54-2.49-10.49Z"/><rect class="cls-1" x="536.9" y="31.3" width="16.98" height="67.19"/><path class="cls-1" d="m565.98,3.66v7.92c0,1.43-.52,2.73-1.34,3.32l-14.24,10.37c-2.98,2.17-7.03,2.17-10.01,0l-14.24-10.37c-.82-.59-1.34-1.89-1.34-3.32V3.66c0-2.74,1.82-4.5,3.34-3.24l16.19,13.36c.61.5,1.49.5,2.11,0l16.19-13.36c1.52-1.26,3.34.51,3.34,3.24Z"/></g></svg>