<?xml version="1.0" encoding="UTF-8"?>
<svg id="Capa_2" xmlns="http://www.w3.org/2000/svg" viewBox="0 0 212.37 205.25"><defs>
<style>
.cls-1{fill:transparent;}
.cls-1,.cls-2,.cls-3{stroke-width:0px;}
.cls-2{fill:#aa8abf;}
.cls-3{fill:#d2df8a;}
</style>
</defs><g id="Capa_1-2"><rect class="cls-1" width="212.37" height="205.25" rx="31.74" ry="31.74"/><path class="cls-3" d="m151.41,137.46v10.25c0,1.85-.68,3.53-1.73,4.3l-18.44,13.42c-3.86,2.81-9.1,2.81-12.96,0l-18.44-13.42c-1.06-.77-1.73-2.45-1.73-4.3v-10.25c0-3.54,2.35-5.83,4.33-4.2l20.96,17.29c.79.65,1.93.65,2.73,0l20.96-17.29c1.97-1.63,4.33.66,4.33,4.2Z"/><path class="cls-2" d="m94.65,41.7c4.97-2.67,10.65-4,17.04-4,7.43,0,14.16,1.83,20.18,5.49,6.02,3.67,10.78,8.87,14.29,15.62,3.51,6.75,5.26,14.58,5.26,23.47s-1.75,16.78-5.26,23.63c-3.51,6.86-8.27,12.17-14.29,15.94-6.02,3.77-12.74,5.65-20.18,5.65-6.39,0-12.01-1.31-16.88-3.93-4.87-2.62-8.82-5.91-11.85-9.89v53.86h-21.98V39.11h21.98v12.56c2.83-3.98,6.72-7.3,11.7-9.97Zm31.09,27.01c-2.15-3.82-4.97-6.72-8.48-8.71-3.51-1.99-7.3-2.98-11.38-2.98s-7.72,1.02-11.23,3.06c-3.51,2.04-6.33,5-8.48,8.87-2.15,3.87-3.22,8.43-3.22,13.66s1.07,9.79,3.22,13.66c2.14,3.87,4.97,6.83,8.48,8.87,3.51,2.04,7.25,3.06,11.23,3.06s7.88-1.05,11.38-3.14c3.51-2.09,6.33-5.08,8.48-8.95,2.14-3.87,3.22-8.48,3.22-13.82s-1.07-9.76-3.22-13.58Z"/></g></svg>